<svg width="40" height="40" viewBox="0 0 40 40" fill="none" xmlns="http://www.w3.org/2000/svg">
<path d="M30.3042 23.2111C29.3555 26.9215 26.4429 29.86 22.708 30.901V37.4293C30.0278 36.1847 35.7812 30.4449 36.9119 23.2111H30.3042Z" fill="#F18903"/>
<path d="M9.13672 17.9684C10.1394 14.0514 13.3359 10.9904 17.3726 10.1188V3.65002C9.75024 4.65979 3.69336 10.5206 2.52295 17.9684H9.13672Z" fill="#F18903"/>
<path d="M17.3726 31.0616C13.3354 30.1954 10.1394 27.13 9.13672 23.2111H2.52295C3.68677 30.6583 9.74902 36.5211 17.3726 37.5299V31.0616Z" fill="#F18903"/>
<path d="M40.033 19.3604H20.783V1.74268H37.6714V0H20.783H19.0403V1.74268V19.3604H0V21.103H19.0403V40H20.783V21.103H40.033V19.3604Z" fill="#F18903"/>
<rect x="22.8357" y="11.045" width="14.7349" height="6.45354" fill="#F18903"/>
</svg>
